<svg width="291" height="142" viewBox="0 0 291 142" fill="none" xmlns="http://www.w3.org/2000/svg">
<circle cx="220" cy="71" r="71" fill="#EAFF00"/>
<path d="M8.188 47.7H50.018L49.929 56.689H18.69V75.201H46.992V84.101H18.69V110H8.188V47.7ZM59.3804 47.7H69.8824V101.011H96.8494V110H59.3804V47.7ZM126.846 47.7H137.615L164.849 110H153.635L131.919 58.291L110.292 110H99.3449L126.846 47.7ZM113.051 86.682H150.342V95.582H113.051V86.682ZM159.593 47.7H209.522V56.689H189.764V110H179.262V56.689H159.593V47.7Z" fill="black"/>
<rect x="19" y="71" width="30" height="20" fill="white"/>
<path d="M132 58L153.651 109.75H110.349L132 58Z" fill="white"/>
</svg>
